<?xml version="1.0" standalone="no"?>
<!DOCTYPE svg PUBLIC "-//W3C//DTD SVG 20010904//EN"
 "http://www.w3.org/TR/2001/REC-SVG-20010904/DTD/svg10.dtd">
<svg version="1.0" xmlns="http://www.w3.org/2000/svg"
 width="288.000000pt" height="305.000000pt" viewBox="0 0 288.000000 305.000000"
 preserveAspectRatio="xMidYMid meet">

<g transform="translate(0.000000,305.000000) scale(0.100000,-0.100000)"
fill="#000000" stroke="none">
<path d="M2073 2576 c-42 -36 -59 -107 -38 -166 17 -48 64 -113 105 -144 14
-11 49 -43 78 -71 l52 -52 0 -64 c0 -99 -34 -139 -140 -165 -53 -14 -67 -14
-141 1 -46 10 -100 28 -121 41 -83 53 -145 69 -263 68 -143 -2 -198 -17 -390
-110 -146 -71 -159 -74 -284 -84 -94 -7 -115 -12 -127 -28 -11 -16 -22 -18
-64 -14 -57 5 -129 -11 -179 -41 -39 -24 -101 -116 -101 -151 0 -22 3 -25 28
-20 41 7 56 -7 41 -39 -6 -14 -9 -37 -5 -51 6 -23 9 -24 31 -14 14 6 25 14 25
18 0 4 11 12 25 18 30 14 40 1 36 -44 -4 -45 11 -49 63 -14 36 25 60 32 113
37 65 5 71 4 148 -36 44 -22 88 -41 97 -41 9 0 19 -4 23 -9 3 -5 30 -15 60
-21 66 -14 90 -33 74 -61 -21 -40 -106 -118 -162 -149 -58 -32 -97 -71 -97
-97 0 -15 -46 -90 -112 -182 -24 -33 -50 -69 -58 -81 -57 -85 -83 -110 -121
-121 -53 -16 -86 -60 -70 -95 9 -20 8 -30 -5 -49 -17 -26 -16 -106 1 -112 6
-2 19 13 29 32 11 20 45 62 76 95 32 32 70 80 85 107 31 53 143 221 163 244 7
8 22 27 33 42 12 15 37 36 57 46 43 22 77 57 86 88 4 12 46 51 94 86 102 75
116 83 170 95 45 11 44 15 8 -58 -10 -19 -20 -58 -23 -87 -5 -49 -4 -52 23
-66 27 -13 33 -12 89 14 33 16 68 29 77 29 10 0 32 6 50 14 18 8 60 22 93 32
33 9 79 24 102 32 48 16 73 11 73 -15 0 -10 5 -25 10 -33 9 -13 12 -12 25 4
14 18 15 18 47 -6 44 -33 68 -41 74 -24 7 18 -28 83 -72 134 -38 45 -71 53
-138 33 -17 -5 -65 -19 -106 -31 -41 -13 -93 -28 -115 -35 -82 -25 -95 -27
-102 -9 -4 12 2 24 18 36 13 10 44 34 67 53 36 29 52 35 92 35 60 0 191 31
245 58 94 47 144 123 152 229 6 73 6 74 46 101 75 50 188 165 214 217 37 74
43 194 14 260 -27 60 -38 73 -123 142 -50 39 -68 60 -68 78 0 36 35 55 101 55
41 0 60 5 72 18 24 27 21 41 -10 48 -28 7 -85 32 -133 59 -38 22 -85 18 -117
-9z"/>
</g>
</svg>
